<?xml version="1.0" encoding="utf-8"?>
<!-- Generator: Adobe Illustrator 23.1.0, SVG Export Plug-In . SVG Version: 6.00 Build 0)  -->
<svg version="1.1" id="Слой_1" xmlns="http://www.w3.org/2000/svg" xmlns:xlink="http://www.w3.org/1999/xlink" x="0px" y="0px"
	 viewBox="0 0 1006 406.1" style="enable-background:new 0 0 1006 406.1;" xml:space="preserve">
<style type="text/css">
	.st0{fill:#694C26;}
	.st1{fill:#808080;}
	.st2{fill:#754C24;}
	.st3{fill:none;stroke:#000000;stroke-width:1;stroke-miterlimit:9.9996;}
</style>
<g>
	<g id="XMLID_1_">
		<g>
			<path class="st0" d="M1006,15.1v2c-3.5-0.7-7-1.4-10.5-2H1006z"/>
			<path class="st0" d="M1006,17.1H680.5c5.4-0.6,10.7-1.3,15.8-2h299.2C999,15.8,1002.5,16.4,1006,17.1z"/>
			<path class="st0" d="M995.5,15.1H696.3c36.1-5.1,68.3-12.5,127.7-14C864.7,0.2,923.5,1.8,995.5,15.1z"/>
			<path class="st1" d="M921.3,212.6c0.3,2.6-1.4,4.9-3.7,5.1c-2.3,0.2-4.4-1.7-4.6-4.3c-0.3-2.6,1.4-4.9,3.7-5.1
				C919,208.1,921.1,210,921.3,212.6z"/>
			<path class="st1" d="M902.2,112c0.3,2.6-1.4,4.9-3.7,5.1s-4.4-1.7-4.6-4.3c-0.3-2.6,1.4-4.9,3.7-5.1S901.9,109.4,902.2,112z"/>
			<path class="st1" d="M846.5,301.4c0.3,2.6-1.4,4.9-3.7,5.1s-4.4-1.7-4.6-4.3c-0.3-2.6,1.4-4.9,3.7-5.1
				C844.2,296.9,846.3,298.8,846.5,301.4z"/>
			<path class="st1" d="M818,179.6c0.3,2.6-1.4,4.9-3.7,5.1c-2.3,0.2-4.4-1.7-4.6-4.3c-0.3-2.6,1.4-4.9,3.7-5.1S817.7,177,818,179.6
				z"/>
			<path class="st1" d="M750.2,275.9c0.3,2.6-1.4,4.9-3.7,5.1s-4.4-1.7-4.6-4.3c-0.3-2.6,1.4-4.9,3.7-5.1S749.9,273.3,750.2,275.9z"
				/>
			<path class="st1" d="M744.2,67.5c0.2,2.6-1.4,4.8-3.7,5.1c-2.3,0.2-4.4-1.7-4.6-4.3c-0.2-2.6,1.4-4.9,3.7-5.1
				C741.8,63,743.9,64.9,744.2,67.5z"/>
			<path class="st1" d="M687.9,323.9c0.2,2.6-1.4,4.9-3.7,5.1s-4.4-1.7-4.6-4.3c-0.2-2.6,1.4-4.9,3.7-5.1
				C685.5,319.4,687.6,321.3,687.9,323.9z"/>
			<path class="st1" d="M663.8,178.6c0.3,2.6-1.4,4.9-3.7,5.1c-2.3,0.2-4.4-1.7-4.6-4.3c-0.3-2.6,1.4-4.9,3.7-5.1
				S663.5,176,663.8,178.6z"/>
			<path class="st1" d="M621.5,275.1c0.3,2.6-1.4,4.9-3.7,5.1s-4.4-1.7-4.6-4.3c-0.3-2.6,1.4-4.9,3.7-5.1
				C619.1,270.6,621.2,272.5,621.5,275.1z"/>
			<path class="st1" d="M620.5,115c0.2,2.6-1.4,4.9-3.7,5.1c-2.3,0.2-4.4-1.7-4.6-4.3c-0.2-2.6,1.4-4.9,3.7-5.1
				S620.2,112.4,620.5,115z"/>
			<path class="st1" d="M578.2,210.3c0.3,2.6-1.4,4.9-3.7,5.1c-2.3,0.2-4.4-1.7-4.6-4.3c-0.3-2.6,1.4-4.9,3.7-5.1
				C575.8,205.8,577.9,207.7,578.2,210.3z"/>
			<path class="st0" d="M563.1,17.1H367.4c0.4-0.1,0.8-0.2,1.2-0.3c0.1,0,0.2,0,0.2-0.1c0.9-0.2,1.7-0.5,2.5-0.8
				c0.5-0.2,1.1-0.3,1.6-0.5c0.4-0.1,0.7-0.2,1-0.3h181.2c0.7,0.1,1.4,0.2,2.2,0.3c1.4,0.4,2.8,0.9,4.1,1.3c0.3,0.1,0.7,0.2,1,0.3
				C562.8,17,562.9,17.1,563.1,17.1z"/>
			<path class="st2" d="M561.5,16.7c0.3,0.1,0.7,0.2,1,0.3C562.2,16.9,561.9,16.8,561.5,16.7z"/>
			<path class="st2" d="M561.5,16.7c-1.4-0.4-2.8-0.8-4.1-1.3c-0.7-0.1-1.5-0.2-2.2-0.3h1.6C558.4,15.7,559.9,16.2,561.5,16.7z"/>
			<path class="st1" d="M535.9,309.2c0.3,2.6-1.4,4.9-3.7,5.1s-4.4-1.7-4.6-4.3c-0.3-2.6,1.4-4.9,3.7-5.1
				C533.5,304.7,535.6,306.6,535.9,309.2z"/>
			<path class="st1" d="M524.3,124.3c0.3,2.6-1.4,4.9-3.7,5.1c-2.3,0.2-4.4-1.7-4.6-4.3c-0.3-2.6,1.4-4.9,3.7-5.1
				C521.9,119.8,524,121.7,524.3,124.3z"/>
			<path class="st1" d="M478.8,259.2c0.3,2.6-1.4,4.9-3.7,5.1s-4.4-1.7-4.6-4.3c-0.3-2.6,1.4-4.9,3.7-5.1
				C476.4,254.7,478.5,256.6,478.8,259.2z"/>
			<path class="st1" d="M424.8,163.3c0.3,2.6-1.4,4.9-3.7,5.1s-4.4-1.7-4.6-4.3c-0.3-2.6,1.4-4.8,3.7-5.1
				C422.4,158.8,424.5,160.7,424.8,163.3z"/>
			<path class="st1" d="M381.6,298.3c0.3,2.6-1.4,4.8-3.7,5.1c-2.3,0.2-4.4-1.7-4.6-4.3c-0.3-2.6,1.4-4.9,3.7-5.1
				S381.3,295.7,381.6,298.3z"/>
			<path class="st0" d="M377.1,13.9c19.1-3.3,39.5-7.4,73.9-8.8c52.1-2.1,66.8,4.8,104.2,10H374c-0.4,0.1-0.7,0.2-1,0.3
				c1-0.3,2-0.7,3-1C376.4,14.3,376.8,14.1,377.1,13.9z"/>
			<path class="st1" d="M375.5,65c0.3,2.6-1.4,4.9-3.7,5.1s-4.4-1.7-4.6-4.3c-0.3-2.6,1.4-4.9,3.7-5.1
				C373.1,60.5,375.2,62.4,375.5,65z"/>
			<path class="st2" d="M371.4,16c0.5-0.2,1.1-0.3,1.6-0.5C372.4,15.6,371.9,15.8,371.4,16z"/>
			<path class="st2" d="M368.8,16.7c0.8-0.2,1.7-0.5,2.5-0.8C370.5,16.2,369.7,16.5,368.8,16.7z"/>
			<path class="st2" d="M292.7,17h-0.5c-1.3-0.3-2.5-0.7-3.7-1C289.9,16.4,291.3,16.7,292.7,17z"/>
			<path class="st1" d="M292.7,176.1c0.3,2.6-1.4,4.9-3.7,5.1s-4.4-1.7-4.6-4.3c-0.3-2.6,1.4-4.9,3.7-5.1S292.4,173.5,292.7,176.1z"
				/>
			<path class="st0" d="M292.2,17H168.6c1.8-0.6,3.6-1.2,5.4-1.9h111.4c0.9,0.3,1.9,0.5,2.8,0.8c0.1,0,0.2,0.1,0.3,0.1
				C289.7,16.4,291,16.7,292.2,17z"/>
			<path class="st2" d="M285.6,15.1c0.9,0.3,1.8,0.5,2.6,0.8c-0.9-0.3-1.9-0.5-2.8-0.8H285.6z"/>
			<path class="st0" d="M284.4,14.8c0.3,0.1,0.7,0.2,1,0.3H174c-1.8,0.7-3.6,1.3-5.4,1.9h-0.3c4.8-1.5,9.4-3.4,14.2-5.1
				c4-1.4,8.1-2.7,12.2-3.9c1.4-0.3,2.8-0.6,4.3-0.9C232.9,0.2,245.5,9.1,284.4,14.8z"/>
			<path class="st1" d="M259.2,257.8c0.3,2.6-1.4,4.9-3.7,5.1s-4.4-1.7-4.6-4.3c-0.3-2.6,1.4-4.9,3.7-5.1
				C256.9,253.3,258.9,255.2,259.2,257.8z"/>
			<path class="st1" d="M234.4,121.1c0.3,2.6-1.4,4.9-3.7,5.1s-4.4-1.7-4.6-4.3c-0.3-2.6,1.4-4.9,3.7-5.1
				C232.1,116.6,234.1,118.5,234.4,121.1z"/>
			<path class="st1" d="M184,278.4c0.3,2.6-1.4,4.9-3.7,5.1c-2.3,0.2-4.4-1.7-4.6-4.3c-0.3-2.6,1.4-4.9,3.7-5.1
				C181.6,273.9,183.7,275.8,184,278.4z"/>
			<path class="st1" d="M154.3,170.3c0.3,2.6-1.4,4.9-3.7,5.1c-2.3,0.2-4.4-1.7-4.6-4.3c-0.3-2.6,1.4-4.9,3.7-5.1
				C152,165.8,154,167.7,154.3,170.3z"/>
			<path class="st0" d="M116.2,15.1c11.5,7.8,29,6.5,41.8,4.6c3.7-0.6,7.1-1.6,10.6-2.7h123.7c24.9,6.5,51.5,6.8,76.4-0.2
				c-0.4,0.1-0.8,0.2-1.2,0.3h195.7h0c6.4,1.7,13.1,2.6,19.6,3.3c11.6,1.2,23.4,1.4,35,1.2c15.8-0.3,31.2-3.6,46.7-5.9
				c1.5-0.3,3-0.4,4.5-0.6h27.4c-5.2,0.7-10.4,1.4-15.8,2H1006v389H0v-389h119.6c-0.7-0.3-1.5-0.7-2.2-1.1c-0.8-0.3-1.6-0.6-2.3-0.9
				H116.2z M917.6,217.7c2.3-0.2,4-2.5,3.7-5.1c-0.3-2.6-2.3-4.5-4.6-4.3c-2.3,0.2-4,2.5-3.7,5.1C913.2,216,915.3,217.9,917.6,217.7
				z M898.4,117.1c2.3-0.2,4-2.5,3.7-5.1s-2.3-4.5-4.6-4.3s-4,2.5-3.7,5.1C894,115.4,896.1,117.3,898.4,117.1z M842.8,306.5
				c2.3-0.2,4-2.5,3.7-5.1c-0.3-2.6-2.3-4.5-4.6-4.3c-2.3,0.2-4,2.5-3.7,5.1C838.4,304.8,840.5,306.7,842.8,306.5z M814.2,184.7
				c2.3-0.2,4-2.5,3.7-5.1c-0.3-2.6-2.3-4.5-4.6-4.3s-4,2.5-3.7,5.1C809.8,183,811.9,184.9,814.2,184.7z M746.4,281
				c2.3-0.2,4-2.5,3.7-5.1c-0.3-2.6-2.3-4.5-4.6-4.3s-4,2.5-3.7,5.1C742,279.3,744.1,281.2,746.4,281z M740.4,72.6
				c2.3-0.2,4-2.5,3.7-5.1c-0.3-2.6-2.3-4.5-4.6-4.3c-2.3,0.2-4,2.5-3.7,5.1C736,70.9,738.1,72.8,740.4,72.6z M684.1,329
				c2.3-0.2,4-2.5,3.7-5.1c-0.3-2.6-2.3-4.5-4.6-4.3c-2.3,0.2-4,2.5-3.7,5.1C679.7,327.3,681.8,329.2,684.1,329z M660,183.7
				c2.3-0.2,4-2.5,3.7-5.1c-0.3-2.6-2.3-4.5-4.6-4.3s-4,2.5-3.7,5.1C655.6,182,657.7,183.9,660,183.7z M617.7,280.2
				c2.3-0.2,4-2.5,3.7-5.1c-0.3-2.6-2.3-4.5-4.6-4.3c-2.3,0.2-4,2.5-3.7,5.1C613.3,278.5,615.4,280.4,617.7,280.2z M616.7,120.1
				c2.3-0.2,4-2.5,3.7-5.1c-0.3-2.6-2.3-4.5-4.6-4.3s-4,2.5-3.7,5.1C612.3,118.4,614.4,120.3,616.7,120.1z M574.4,215.4
				c2.3-0.2,4-2.5,3.7-5.1c-0.2-2.6-2.3-4.5-4.6-4.3c-2.3,0.2-4,2.5-3.7,5.1C570,213.7,572.1,215.6,574.4,215.4z M532.1,314.3
				c2.3-0.2,4-2.5,3.7-5.1c-0.3-2.6-2.3-4.5-4.6-4.3c-2.3,0.2-4,2.5-3.7,5.1C527.8,312.6,529.8,314.5,532.1,314.3z M520.5,129.4
				c2.3-0.2,4-2.5,3.7-5.1c-0.3-2.6-2.3-4.5-4.6-4.3c-2.3,0.2-4,2.5-3.7,5.1C516.2,127.7,518.2,129.6,520.5,129.4z M475,264.3
				c2.3-0.2,4-2.5,3.7-5.1c-0.3-2.6-2.3-4.5-4.6-4.3c-2.3,0.2-4,2.5-3.7,5.1C470.6,262.6,472.7,264.5,475,264.3z M421,168.4
				c2.3-0.2,4-2.5,3.7-5.1c-0.2-2.6-2.3-4.5-4.6-4.3c-2.3,0.2-4,2.5-3.7,5.1C416.6,166.7,418.7,168.6,421,168.4z M377.8,303.4
				c2.3-0.2,4-2.5,3.7-5.1c-0.3-2.6-2.3-4.5-4.6-4.3s-4,2.5-3.7,5.1C373.5,301.7,375.5,303.6,377.8,303.4z M371.7,70.1
				c2.3-0.2,4-2.5,3.7-5.1c-0.3-2.6-2.3-4.5-4.6-4.3c-2.3,0.2-4,2.5-3.7,5.1C367.4,68.4,369.4,70.3,371.7,70.1z M288.9,181.2
				c2.3-0.2,4-2.5,3.7-5.1s-2.3-4.5-4.6-4.3s-4,2.5-3.7,5.1C284.6,179.5,286.6,181.4,288.9,181.2z M255.4,262.9
				c2.3-0.2,4-2.5,3.7-5.1c-0.3-2.6-2.3-4.5-4.6-4.3c-2.3,0.2-4,2.5-3.7,5.1C251.1,261.2,253.1,263.1,255.4,262.9z M230.6,126.2
				c2.3-0.2,4-2.5,3.7-5.1c-0.3-2.6-2.3-4.5-4.6-4.3c-2.3,0.2-4,2.5-3.7,5.1C226.3,124.5,228.3,126.4,230.6,126.2z M180.2,283.5
				c2.3-0.2,4-2.5,3.7-5.1c-0.2-2.6-2.3-4.5-4.6-4.3c-2.3,0.2-4,2.5-3.7,5.1C175.9,281.8,177.9,283.7,180.2,283.5z M150.6,175.4
				c2.3-0.2,4-2.5,3.7-5.1s-2.3-4.5-4.6-4.3c-2.3,0.2-4,2.5-3.7,5.1C146.2,173.7,148.2,175.6,150.6,175.4z M86,238.2
				c2.3-0.2,4-2.5,3.7-5.1c-0.3-2.6-2.3-4.5-4.6-4.3c-2.3,0.2-4,2.5-3.7,5.1C81.7,236.5,83.7,238.4,86,238.2z M77.3,141.4
				c2.3-0.2,4-2.5,3.7-5.1c-0.3-2.6-2.3-4.5-4.6-4.3c-2.3,0.2-4,2.5-3.7,5.1C73,139.7,75,141.6,77.3,141.4z M69.1,63.1
				c2.3-0.2,4-2.5,3.7-5.1c-0.3-2.6-2.3-4.5-4.6-4.3c-2.3,0.2-4,2.5-3.7,5.1C64.7,61.4,66.7,63.3,69.1,63.1z"/>
			<path class="st0" d="M119.6,17.1H0c1.3-0.6,2.7-1.3,4.3-2h110.8c0.7,0.3,1.5,0.6,2.3,0.9C118.1,16.4,118.9,16.8,119.6,17.1z"/>
			<path class="st0" d="M115.1,15.1H4.3c5.6-2.5,12.9-5.4,21.7-8c11.8-3.5,33.1-9.7,56-6C99.3,4,102.7,10.1,115.1,15.1z"/>
			<path class="st1" d="M89.8,233.1c0.2,2.6-1.4,4.9-3.7,5.1c-2.3,0.2-4.4-1.7-4.6-4.3c-0.3-2.6,1.4-4.9,3.7-5.1
				C87.5,228.6,89.5,230.5,89.8,233.1z"/>
			<path class="st1" d="M81.1,136.3c0.3,2.6-1.4,4.9-3.7,5.1c-2.3,0.2-4.4-1.7-4.6-4.3c-0.3-2.6,1.4-4.9,3.7-5.1
				C78.8,131.8,80.8,133.7,81.1,136.3z"/>
			<path class="st1" d="M72.8,58c0.3,2.6-1.4,4.8-3.7,5.1c-2.3,0.2-4.4-1.7-4.6-4.3c-0.3-2.6,1.4-4.9,3.7-5.1
				C70.5,53.5,72.5,55.4,72.8,58z"/>
			<path class="st0" d="M0,15.1h4.3c-1.6,0.7-3,1.4-4.3,2V15.1z"/>
		</g>
		<g>
			<path class="st3" d="M76.4,132c2.3-0.2,4.4,1.7,4.6,4.3c0.3,2.6-1.4,4.9-3.7,5.1c-2.3,0.2-4.4-1.7-4.6-4.3
				C72.5,134.5,74.1,132.3,76.4,132z"/>
			<path class="st3" d="M85.2,228.8c2.3-0.2,4.4,1.7,4.6,4.3c0.2,2.6-1.4,4.9-3.7,5.1c-2.3,0.2-4.4-1.7-4.6-4.3
				C81.2,231.3,82.8,229.1,85.2,228.8z"/>
			<path class="st3" d="M179.3,274.1c2.3-0.2,4.4,1.7,4.6,4.3c0.3,2.6-1.4,4.9-3.7,5.1c-2.3,0.2-4.4-1.7-4.6-4.3
				C175.4,276.6,177,274.4,179.3,274.1z"/>
			<path class="st3" d="M149.6,166c2.3-0.2,4.4,1.7,4.6,4.3s-1.4,4.9-3.7,5.1c-2.3,0.2-4.4-1.7-4.6-4.3
				C145.7,168.5,147.3,166.3,149.6,166z"/>
			<path class="st3" d="M254.5,253.5c2.3-0.2,4.4,1.7,4.6,4.3c0.3,2.6-1.4,4.9-3.7,5.1s-4.4-1.7-4.6-4.3
				C250.6,256,252.2,253.8,254.5,253.5z"/>
			<path class="st3" d="M288,171.8c2.3-0.2,4.4,1.7,4.6,4.3s-1.4,4.9-3.7,5.1s-4.4-1.7-4.6-4.3C284.1,174.3,285.7,172.1,288,171.8z"
				/>
			<path class="st3" d="M531.2,304.9c2.3-0.2,4.4,1.7,4.6,4.3c0.3,2.6-1.4,4.9-3.7,5.1s-4.4-1.7-4.6-4.3
				C527.3,307.4,528.9,305.2,531.2,304.9z"/>
			<path class="st3" d="M474.1,254.9c2.3-0.2,4.4,1.7,4.6,4.3c0.3,2.6-1.4,4.9-3.7,5.1s-4.4-1.7-4.6-4.3
				C470.1,257.4,471.8,255.2,474.1,254.9z"/>
			<path class="st3" d="M573.5,206c2.3-0.2,4.4,1.7,4.6,4.3c0.3,2.6-1.4,4.9-3.7,5.1c-2.3,0.2-4.4-1.7-4.6-4.3
				C569.5,208.5,571.2,206.3,573.5,206z"/>
			<path class="st3" d="M813.3,175.3c2.3-0.2,4.4,1.7,4.6,4.3c0.3,2.6-1.4,4.9-3.7,5.1c-2.3,0.2-4.4-1.7-4.6-4.3
				C809.3,177.8,811,175.6,813.3,175.3z"/>
			<path class="st3" d="M683.2,319.6c2.3-0.2,4.4,1.7,4.6,4.3c0.2,2.6-1.4,4.9-3.7,5.1s-4.4-1.7-4.6-4.3
				C679.3,322.1,680.9,319.9,683.2,319.6z"/>
			<path class="st3" d="M916.7,208.3c2.3-0.2,4.4,1.7,4.6,4.3c0.3,2.6-1.4,4.9-3.7,5.1c-2.3,0.2-4.4-1.7-4.6-4.3
				C912.7,210.8,914.4,208.6,916.7,208.3z"/>
			<path class="st3" d="M897.5,107.7c2.3-0.2,4.4,1.7,4.6,4.3s-1.4,4.9-3.7,5.1s-4.4-1.7-4.6-4.3C893.5,110.2,895.2,108,897.5,107.7
				z"/>
			<path class="st3" d="M739.5,63.2c2.3-0.2,4.4,1.7,4.6,4.3c0.2,2.6-1.4,4.8-3.7,5.1c-2.3,0.2-4.4-1.7-4.6-4.3
				C735.5,65.7,737.2,63.5,739.5,63.2z"/>
			<path class="st3" d="M615.8,110.7c2.3-0.2,4.4,1.7,4.6,4.3c0.2,2.6-1.4,4.9-3.7,5.1c-2.3,0.2-4.4-1.7-4.6-4.3
				C611.8,113.2,613.5,111,615.8,110.7z"/>
			<path class="st3" d="M659.1,174.3c2.3-0.2,4.4,1.7,4.6,4.3c0.3,2.6-1.4,4.9-3.7,5.1c-2.3,0.2-4.4-1.7-4.6-4.3
				C655.2,176.8,656.8,174.6,659.1,174.3z"/>
			<path class="st3" d="M745.5,271.6c2.3-0.2,4.4,1.7,4.6,4.3c0.3,2.6-1.4,4.9-3.7,5.1s-4.4-1.7-4.6-4.3
				C741.5,274.1,743.2,271.9,745.5,271.6z"/>
			<path class="st3" d="M841.9,297.1c2.3-0.2,4.4,1.7,4.6,4.3c0.3,2.6-1.4,4.9-3.7,5.1s-4.4-1.7-4.6-4.3
				C837.9,299.6,839.6,297.4,841.9,297.1z"/>
			<path class="st3" d="M370.8,60.7c2.3-0.2,4.4,1.7,4.6,4.3c0.3,2.6-1.4,4.9-3.7,5.1s-4.4-1.7-4.6-4.3
				C366.9,63.2,368.5,61,370.8,60.7z"/>
			<path class="st3" d="M68.2,53.7c2.3-0.2,4.4,1.7,4.6,4.3c0.3,2.6-1.4,4.8-3.7,5.1c-2.3,0.2-4.4-1.7-4.6-4.3
				C64.2,56.2,65.8,54,68.2,53.7z"/>
			<path class="st3" d="M616.8,270.8c2.3-0.2,4.4,1.7,4.6,4.3c0.3,2.6-1.4,4.9-3.7,5.1s-4.4-1.7-4.6-4.3
				C612.8,273.3,614.5,271.1,616.8,270.8z"/>
			<path class="st3" d="M519.6,120c2.3-0.2,4.4,1.7,4.6,4.3c0.3,2.6-1.4,4.9-3.7,5.1c-2.3,0.2-4.4-1.7-4.6-4.3
				C515.7,122.5,517.3,120.3,519.6,120z"/>
			<path class="st3" d="M420.1,159c2.3-0.2,4.4,1.7,4.6,4.3c0.3,2.6-1.4,4.9-3.7,5.1s-4.4-1.7-4.6-4.3
				C416.1,161.5,417.8,159.3,420.1,159z"/>
			<path class="st3" d="M229.7,116.8c2.3-0.2,4.4,1.7,4.6,4.3c0.3,2.6-1.4,4.9-3.7,5.1s-4.4-1.7-4.6-4.3
				C225.8,119.3,227.4,117.1,229.7,116.8z"/>
			<path class="st3" d="M376.9,294c2.3-0.2,4.4,1.7,4.6,4.3c0.3,2.6-1.4,4.8-3.7,5.1c-2.3,0.2-4.4-1.7-4.6-4.3
				C373,296.5,374.6,294.3,376.9,294z"/>
		</g>
	</g>
</g>
</svg>
