<?xml version="1.0" encoding="utf-8"?>
<!-- Generator: Adobe Illustrator 23.1.0, SVG Export Plug-In . SVG Version: 6.00 Build 0)  -->
<svg version="1.1" xmlns="http://www.w3.org/2000/svg" xmlns:xlink="http://www.w3.org/1999/xlink" x="0px" y="0px"
	 viewBox="0 0 1006 406.1" style="enable-background:new 0 0 1006 406.1;" xml:space="preserve">
<style type="text/css">
	.st0{fill:#754C24;}
	.st1{fill:#808080;stroke:#000000;stroke-miterlimit:10;}
</style>
<g id="Слой_2">
</g>
<g id="Слой_1">
	<path class="st0" d="M668.9,15.1c-1.5,0.2-3,0.3-4.5,0.6c-15.5,2.3-30.9,5.6-46.7,5.9c-11.6,0.2-23.4,0-35-1.2
		c-8.7-0.9-17.6-2.2-25.9-5.3H374c-28.5,9.4-59.9,8.9-88.4,0H174c-5.2,1.9-10.4,3.7-16,4.6c-12.8,1.9-30.3,3.2-41.8-4.6H0v391h1006
		v-391H668.9z"/>
	
		<ellipse transform="matrix(0.9954 -9.543451e-02 9.543451e-02 0.9954 -12.6934 7.9583)" class="st1" cx="76.9" cy="136.7" rx="4.2" ry="4.7"/>
	
		<ellipse transform="matrix(0.9954 -9.543451e-02 9.543451e-02 0.9954 -21.894 9.2332)" class="st1" cx="85.6" cy="233.5" rx="4.2" ry="4.7"/>
	
		<ellipse transform="matrix(0.9954 -9.543451e-02 9.543451e-02 0.9954 -25.7871 18.4302)" class="st1" cx="179.8" cy="278.8" rx="4.2" ry="4.7"/>
	
		<ellipse transform="matrix(0.9954 -9.543451e-02 9.543451e-02 0.9954 -15.603 15.105)" class="st1" cx="150.1" cy="170.7" rx="4.2" ry="4.7"/>
	
		<ellipse transform="matrix(0.9954 -9.543451e-02 9.543451e-02 0.9954 -23.4796 25.5163)" class="st1" cx="255" cy="258.2" rx="4.2" ry="4.7"/>
	
		<ellipse transform="matrix(0.9954 -9.543451e-02 9.543451e-02 0.9954 -15.5255 28.3404)" class="st1" cx="288.5" cy="176.5" rx="4.2" ry="4.7"/>
	
		<ellipse transform="matrix(0.9954 -9.543451e-02 9.543451e-02 0.9954 -27.1227 52.1549)" class="st1" cx="531.7" cy="309.6" rx="4.2" ry="4.7"/>
	
		<ellipse transform="matrix(0.9954 -9.543451e-02 9.543451e-02 0.9954 -22.6107 46.4745)" class="st1" cx="474.6" cy="259.6" rx="4.2" ry="4.7"/>
	
		<ellipse transform="matrix(0.9954 -9.543451e-02 9.543451e-02 0.9954 -17.4854 55.7376)" class="st1" cx="574" cy="210.7" rx="4.2" ry="4.7"/>
	
		<ellipse transform="matrix(0.9954 -9.543451e-02 9.543451e-02 0.9954 -13.4675 78.4844)" class="st1" cx="813.8" cy="180" rx="4.2" ry="4.7"/>
	
		<ellipse transform="matrix(0.9954 -9.543451e-02 9.543451e-02 0.9954 -27.8295 66.7262)" class="st1" cx="683.7" cy="324.3" rx="4.2" ry="4.7"/>
	
		<ellipse transform="matrix(0.9954 -9.543451e-02 9.543451e-02 0.9954 -16.1406 88.5028)" class="st1" cx="917.2" cy="213" rx="4.2" ry="4.7"/>
	
		<ellipse transform="matrix(0.9954 -9.543451e-02 9.543451e-02 0.9954 -6.6258 86.2123)" class="st1" cx="898" cy="112.4" rx="4.2" ry="4.7"/>
	
		<ellipse transform="matrix(0.9954 -9.543451e-02 9.543451e-02 0.9954 -3.1009 70.9336)" class="st1" cx="740" cy="67.9" rx="4.2" ry="4.7"/>
	
		<ellipse transform="matrix(0.9954 -9.543451e-02 9.543451e-02 0.9954 -8.2033 59.3395)" class="st1" cx="616.3" cy="115.4" rx="4.2" ry="4.7"/>
	
		<ellipse transform="matrix(0.9954 -9.543451e-02 9.543451e-02 0.9954 -14.0717 63.7622)" class="st1" cx="659.6" cy="179" rx="4.2" ry="4.7"/>
	
		<ellipse transform="matrix(0.9954 -9.543451e-02 9.543451e-02 0.9954 -22.968 72.4536)" class="st1" cx="746" cy="276.3" rx="4.2" ry="4.7"/>
	
		<ellipse transform="matrix(0.9954 -9.543451e-02 9.543451e-02 0.9954 -24.9582 81.7694)" class="st1" cx="842.4" cy="301.8" rx="4.2" ry="4.7"/>
	
		<ellipse transform="matrix(0.9954 -9.543451e-02 9.543451e-02 0.9954 -4.5457 35.7332)" class="st1" cx="371.3" cy="65.4" rx="4.2" ry="4.7"/>
	
		<ellipse transform="matrix(0.9954 -9.543451e-02 9.543451e-02 0.9954 -5.258 6.8167)" class="st1" cx="68.6" cy="58.4" rx="4.2" ry="4.7"/>
	
		<ellipse transform="matrix(0.9954 -9.543451e-02 9.543451e-02 0.9954 -23.4723 60.1667)" class="st1" cx="617.3" cy="275.5" rx="4.2" ry="4.7"/>
	
		<ellipse transform="matrix(0.9954 -9.543451e-02 9.543451e-02 0.9954 -9.5273 50.2033)" class="st1" cx="520.1" cy="124.7" rx="4.2" ry="4.7"/>
	
		<ellipse transform="matrix(0.9954 -9.543451e-02 9.543451e-02 0.9954 -13.7056 40.8889)" class="st1" cx="420.6" cy="163.7" rx="4.2" ry="4.7"/>
	
		<ellipse transform="matrix(0.9954 -9.543451e-02 9.543451e-02 0.9954 -10.5447 22.5236)" class="st1" cx="230.2" cy="121.5" rx="4.2" ry="4.7"/>
	
		<ellipse transform="matrix(0.9954 -9.543451e-02 9.543451e-02 0.9954 -26.78 37.3814)" class="st1" cx="377.4" cy="298.7" rx="4.2" ry="4.7"/>
	<path class="st0" d="M117.4,16C103.1,10.8,100.3,4.1,82,1.1c-22.9-3.7-44.2,2.5-56,6c-11.2,3.3-20,7.1-26,10h119.6
		C118.9,16.8,118.1,16.4,117.4,16z"/>
	<path class="st0" d="M284.4,14.8C245.5,9.1,232.9,0.2,199,7.1c-1.5,0.3-2.9,0.6-4.3,0.9c-4.1,1.2-8.2,2.5-12.2,3.9
		c-4.8,1.7-9.4,3.6-14.2,5.1h124.4C289.9,16.4,287.1,15.6,284.4,14.8z"/>
	<path class="st0" d="M824,1.1c-67.9,1.7-100.2,11.2-143.5,16H1006C929.2,1.9,866.7,0.1,824,1.1z"/>
	<path class="st0" d="M557.4,15.4C518.4,10.2,504.1,3,451,5.1c-34.4,1.4-54.8,5.5-73.9,8.8c-0.3,0.2-0.7,0.4-1.1,0.5
		c-2.8,1-5.7,1.9-8.6,2.7h195.7C561.2,16.6,559.3,16,557.4,15.4z"/>
</g>
</svg>
